<svg
   fill="{{ .fill }}"
   width="{{ .width }}"
   height="{{ .height }}"
   version="1.1"
   xmlns="http://www.w3.org/2000/svg"
   xmlns:svg="http://www.w3.org/2000/svg">
  <title>Bluesky</title>
  <defs
     id="defs1" />
  <path d="M8,72 L64,72 C68.418278,72 72,68.418278 72,64 L72,8 C72,3.581722 68.418278,-8.11624501e-16 64,0 L8,0 C3.581722,8.11624501e-16 -5.41083001e-16,3.581722 0,8 L0,64 C5.41083001e-16,68.418278 3.581722,72 8,72 Z" id="Rounded" fill="{{ .fill }}"></path>
  <path
     d="M 6.0693699,1.8847443 C 9.2795028,4.6218522 12.732365,10.171568 14.000082,13.149867 15.267895,10.171787 18.720565,4.6217974 21.930794,1.8847443 24.247056,-0.09024339 28,-1.6183765 28,3.2442241 28,4.2153516 27.509761,11.4022 27.222232,12.568956 c -0.999449,4.056453 -4.641407,5.091073 -7.880988,4.464873 5.662725,1.094602 7.103269,4.72032 3.992245,8.346038 -5.908448,6.885947 -8.492157,-1.72771 -9.154498,-3.934843 C 14.057627,21.040404 14.000835,20.851119 14,21.012074 c -8.4e-4,-0.160961 -0.05763,0.02833 -0.178991,0.43295 -0.662052,2.207133 -3.245712,10.82101 -9.1544984,3.934843 C 1.5554392,21.754149 2.9959342,18.128212 8.6587561,17.033829 5.4190786,17.660029 1.7770723,16.625404 0.77776785,12.568956 0.49022885,11.40209 0,4.215242 0,3.2442241 0,-1.6183765 3.7530401,-0.09024339 6.0692058,1.8847443 Z"
     fill="#FFFFFF"
     id="path1"
   />
</svg>
